<svg width="152" height="41" viewBox="0 0 152 41" fill="none" xmlns="http://www.w3.org/2000/svg">
<path d="M33.7613 22.5668C33.3947 22.7939 32.7505 23.0996 32.0297 23.2652C31.306 23.4316 30.5392 23.4493 29.8999 23.1445L29.6848 23.5959C30.468 23.9693 31.3643 23.9313 32.1417 23.7525C32.9221 23.5731 33.617 23.2443 34.0246 22.9918L33.7613 22.5668ZM31.3204 10.4415C31.1827 10.8502 30.8813 11.4964 30.4316 12.0836C29.9801 12.6731 29.4005 13.1756 28.7138 13.3483L28.8357 13.8332C29.6772 13.6216 30.3435 13.0209 30.8286 12.3876C31.3154 11.7518 31.6412 11.0555 31.7942 10.6012L31.3204 10.4415ZM10.5385 11.4002C10.9669 11.3502 11.6799 11.3469 12.4028 11.5029C13.1287 11.6595 13.8305 11.969 14.2799 12.5163L14.6664 12.199C14.1157 11.5284 13.288 11.1823 12.5083 11.0141C11.7255 10.8453 10.9568 10.848 10.4806 10.9036L10.5385 11.4002ZM15.9742 16.0144C16.3062 15.9756 16.8614 15.973 17.424 16.0943C17.9896 16.2163 18.5286 16.4561 18.8715 16.8737L19.2579 16.5564C18.8137 16.0155 18.1489 15.7392 17.5295 15.6056C16.907 15.4713 16.2961 15.4734 15.9162 15.5177L15.9742 16.0144ZM20.5768 25.8829C20.5927 25.549 20.6807 25.0007 20.8922 24.4655C21.1048 23.9274 21.4293 23.4348 21.8972 23.1646L21.6472 22.7316C21.0411 23.0815 20.6601 23.6924 20.4272 24.2817C20.1932 24.8739 20.0956 25.477 20.0773 25.859L20.5768 25.8829ZM14.8993 24.4346C15.0373 24.1302 15.3215 23.6532 15.7156 23.2338C16.1119 22.8122 16.5953 22.4742 17.1299 22.3958L17.0574 21.9011C16.3649 22.0026 15.7853 22.4296 15.3513 22.8914C14.9152 23.3553 14.6019 23.8798 14.4439 24.2281L14.8993 24.4346ZM27.6702 14.1546C27.5606 14.4703 27.3212 14.9714 26.967 15.425C26.6109 15.881 26.1605 16.2618 25.6352 16.3887L25.7526 16.8747C26.4329 16.7104 26.9711 16.2322 27.3611 15.7327C27.753 15.2308 28.0171 14.6799 28.1426 14.3186L27.6702 14.1546ZM7.34727 23.8282C7.58669 23.4696 8.04612 22.9242 8.63324 22.4746C9.22278 22.023 9.91326 21.6889 10.6213 21.7011L10.6299 21.2012C9.76238 21.1862 8.96252 21.5926 8.32922 22.0776C7.6935 22.5645 7.19759 23.1519 6.93141 23.5506L7.34727 23.8282ZM18.9072 33.206C18.9915 32.7831 19.2079 32.1036 19.5788 31.4638C19.9512 30.8214 20.4617 30.2489 21.1208 29.9898L20.9378 29.5245C20.1303 29.8419 19.5462 30.5229 19.1462 31.2131C18.7446 31.9058 18.5106 32.6381 18.4169 33.1083L18.9072 33.206ZM28.9751 4.6414C25.4051 2.64561 21.2607 1.9195 17.2205 2.58655C13.098 3.26718 9.33902 5.35617 6.58406 8.4976C3.82911 11.639 2.24863 15.6385 2.11192 19.8146C1.97521 23.9907 3.29072 28.085 5.83432 31.3998C8.37792 34.7147 11.9922 37.0451 16.0614 37.9939C20.1306 38.9427 24.4028 38.4512 28.1502 36.6032C31.8977 34.7552 34.8884 31.6649 36.6128 27.8591C38.3028 24.1291 38.6741 19.938 37.6702 15.9731L39.4072 15.5077C40.5186 19.8745 40.1122 24.4923 38.2506 28.6011C36.3545 32.7859 33.066 36.1838 28.9455 38.2158C24.8249 40.2479 20.1273 40.7883 15.653 39.745C11.1787 38.7018 7.2046 36.1394 4.40776 32.4944C1.61092 28.8495 0.164426 24.3476 0.314747 19.7558C0.465068 15.1639 2.2029 10.7662 5.23214 7.31204C8.26139 3.85785 12.3946 1.56087 16.9276 0.812477C21.3782 0.0776663 25.9439 0.880381 29.8742 3.0841L28.9751 4.6414ZM17.3019 3.07987C21.228 2.43167 25.2553 3.13648 28.7251 5.07446L19.9459 20.2805L19.6441 20.8032L20.2271 20.647L37.1872 16.1025C38.1612 19.9557 37.7996 24.0282 36.1574 27.6527C34.4807 31.3532 31.5728 34.3579 27.9291 36.1547C24.2854 37.9516 20.1314 38.4295 16.1749 37.507C12.2184 36.5844 8.70418 34.3186 6.231 31.0955C3.75782 27.8724 2.47872 23.8914 2.61165 19.831C2.74457 15.7705 4.2813 11.8817 6.95998 8.82727C9.63867 5.77282 13.2936 3.74166 17.3019 3.07987ZM39.4633 13.7855C38.2069 9.34309 35.2965 5.55008 31.3307 3.1867L32.2298 1.62943C36.6085 4.23143 39.8203 8.41709 41.2003 13.3201L39.4633 13.7855ZM31.0807 3.61976C34.9316 5.91676 37.7583 9.60054 38.9803 13.9148L22.6032 18.3031L27.531 9.76794L27.7042 9.87509C28.2788 10.2307 28.9712 10.3435 29.629 10.1886C30.2868 10.0337 30.8562 9.62387 31.2118 9.04922C31.5674 8.47456 31.6802 7.78217 31.5253 7.12436C31.3704 6.46655 30.9606 5.89721 30.3859 5.54159L30.1733 5.41003L30.0418 5.62262L28.2899 8.45343L31.0807 3.61976ZM34.7646 14.9673L35.0061 14.9026L34.9414 14.6611C34.7665 14.0084 34.3394 13.4518 33.7541 13.1139C33.1689 12.776 32.4734 12.6845 31.8206 12.8594C31.1678 13.0343 30.6113 13.4613 30.2734 14.0466C29.9355 14.6319 29.8439 15.3274 30.0188 15.9801L30.0835 16.2216L30.325 16.1569L34.7646 14.9673ZM32.9927 27.0791C33.2854 28.1716 32.637 29.2947 31.5444 29.5874C30.4519 29.8802 29.3288 29.2318 29.0361 28.1392C28.7433 27.0466 29.3917 25.9236 30.4843 25.6308C31.5769 25.3381 32.6999 25.9865 32.9927 27.0791ZM31.6739 30.0704C33.0332 29.7062 33.8399 28.309 33.4756 26.9497C33.1114 25.5903 31.7142 24.7837 30.3549 25.1479C28.9956 25.5121 28.1889 26.9093 28.5531 28.2686C28.9173 29.628 30.3145 30.4346 31.6739 30.0704ZM33.5041 13.5469C33.9018 13.7765 34.2086 14.1317 34.3789 14.553L30.4519 15.6053C30.3887 15.1553 30.4768 14.6943 30.7064 14.2966C30.978 13.8262 31.4253 13.4829 31.95 13.3423C32.4747 13.2018 33.0337 13.2754 33.5041 13.5469ZM29.5144 9.70192C29.0675 9.80715 28.6006 9.75865 28.1879 9.56846L30.3273 6.11134C30.6817 6.39585 30.9334 6.79199 31.0386 7.23895C31.1631 7.76768 31.0724 8.32421 30.7866 8.7861C30.5008 9.248 30.0431 9.57743 29.5144 9.70192ZM20.6829 7.77547C20.9756 8.86806 20.3272 9.9911 19.2347 10.2839C18.1421 10.5766 17.019 9.92823 16.7263 8.83564C16.4335 7.74306 17.0819 6.62002 18.1745 6.32726C19.2671 6.0345 20.3901 6.68289 20.6829 7.77547ZM19.3641 10.7668C20.7234 10.4026 21.5301 9.00538 21.1658 7.64606C20.8016 6.28675 19.4044 5.48007 18.0451 5.8443C16.6858 6.20852 15.8791 7.60573 16.2433 8.96505C16.6075 10.3244 18.0048 11.131 19.3641 10.7668ZM9.96103 16.5963C10.2538 17.6888 9.6054 18.8119 8.51281 19.1046C7.42022 19.3974 6.29718 18.749 6.00443 17.6564C5.71167 16.5638 6.36006 15.4408 7.45264 15.148C8.54523 14.8553 9.66827 15.5037 9.96103 16.5963ZM8.64222 19.5876C10.0015 19.2234 10.8082 17.8262 10.444 16.4668C10.0798 15.1075 8.68255 14.3008 7.32323 14.6651C5.96391 15.0293 5.15723 16.4265 5.52146 17.7858C5.88569 19.1452 7.2829 19.9518 8.64222 19.5876ZM17.4821 30.0964C17.5897 31.2224 16.7641 32.2224 15.6381 32.3299C14.5121 32.4375 13.5121 31.6119 13.4045 30.4859C13.297 29.3599 14.1226 28.3599 15.2486 28.2523C16.3746 28.1447 17.3746 28.9704 17.4821 30.0964ZM15.6856 32.8277C17.0865 32.6938 18.1137 31.4497 17.9799 30.0488C17.8461 28.6479 16.6019 27.6208 15.201 27.7546C13.8001 27.8884 12.773 29.1325 12.9068 30.5334C13.0406 31.9343 14.2848 32.9615 15.6856 32.8277Z" stroke="#FF9B23" stroke-width="0.5"/>
<path d="M58.875 23.6797H60.3164C60.1992 24.8281 59.8828 25.8203 59.3672 26.6562C58.8516 27.4844 58.1484 28.1211 57.2578 28.5664C56.3672 29.0117 55.293 29.2344 54.0352 29.2344C53.0664 29.2344 52.1875 29.0508 51.3984 28.6836C50.6172 28.3164 49.9453 27.7969 49.3828 27.125C48.8203 26.4453 48.3867 25.6328 48.082 24.6875C47.7773 23.7422 47.625 22.6914 47.625 21.5352V19.4023C47.625 18.2461 47.7773 17.1992 48.082 16.2617C48.3867 15.3164 48.8242 14.5039 49.3945 13.8242C49.9648 13.1445 50.6484 12.6211 51.4453 12.2539C52.2422 11.8867 53.1406 11.7031 54.1406 11.7031C55.3516 11.7031 56.3984 11.9258 57.2812 12.3711C58.1641 12.8086 58.8594 13.4414 59.3672 14.2695C59.8828 15.0977 60.1992 16.0977 60.3164 17.2695H58.875C58.7656 16.3477 58.5234 15.5664 58.1484 14.9258C57.7734 14.2852 57.2539 13.7969 56.5898 13.4609C55.9336 13.1172 55.1172 12.9453 54.1406 12.9453C53.3438 12.9453 52.6328 13.0977 52.0078 13.4023C51.3828 13.707 50.8516 14.1445 50.4141 14.7148C49.9766 15.2773 49.6406 15.9531 49.4062 16.7422C49.1797 17.5312 49.0664 18.4102 49.0664 19.3789V21.5352C49.0664 22.4727 49.1758 23.3359 49.3945 24.125C49.6133 24.9141 49.9336 25.5977 50.3555 26.1758C50.7852 26.7539 51.3086 27.2031 51.9258 27.5234C52.543 27.8438 53.2461 28.0039 54.0352 28.0039C55.043 28.0039 55.8828 27.8438 56.5547 27.5234C57.2344 27.1953 57.7617 26.7109 58.1367 26.0703C58.5117 25.4297 58.7578 24.6328 58.875 23.6797ZM69.4336 12.957L63.5273 29H62.0273L68.4727 11.9375H69.5156L69.4336 12.957ZM74.8008 29L68.8828 12.957L68.8008 11.9375H69.8438L76.3008 29H74.8008ZM73.7461 22.9766V24.2188H64.6875V22.9766H73.7461ZM79.2773 11.9375H80.7305L87.0352 26.9609L93.3516 11.9375H94.793L87.5859 29H86.4844L79.2773 11.9375ZM78.832 11.9375H80.1094L80.2617 21.5469V29H78.832V11.9375ZM93.9844 11.9375H95.2617V29H93.8203V21.5469L93.9844 11.9375ZM105.398 22.0508H100.535V20.8203H105.398C106.414 20.8203 107.238 20.6562 107.871 20.3281C108.512 19.9922 108.977 19.5391 109.266 18.9688C109.562 18.3984 109.711 17.7578 109.711 17.0469C109.711 16.3516 109.562 15.7109 109.266 15.125C108.977 14.5391 108.512 14.0703 107.871 13.7188C107.238 13.3594 106.414 13.1797 105.398 13.1797H101.039V29H99.5977V11.9375H105.398C106.648 11.9375 107.699 12.1523 108.551 12.582C109.41 13.0117 110.059 13.6094 110.496 14.375C110.934 15.1406 111.152 16.0234 111.152 17.0234C111.152 18.0703 110.934 18.9727 110.496 19.7305C110.059 20.4805 109.414 21.0547 108.562 21.4531C107.711 21.8516 106.656 22.0508 105.398 22.0508ZM116.145 11.9375V29H114.703V11.9375H116.145ZM133.488 11.9375V29H132.035L122.227 14.4219V29H120.785V11.9375H122.227L132.059 26.5156V11.9375H133.488ZM150.445 19.5547V21.3828C150.445 22.5781 150.289 23.6602 149.977 24.6289C149.672 25.5898 149.227 26.4141 148.641 27.1016C148.062 27.7891 147.367 28.3164 146.555 28.6836C145.742 29.0508 144.828 29.2344 143.812 29.2344C142.82 29.2344 141.914 29.0508 141.094 28.6836C140.281 28.3164 139.582 27.7891 138.996 27.1016C138.41 26.4141 137.957 25.5898 137.637 24.6289C137.316 23.6602 137.156 22.5781 137.156 21.3828V19.5547C137.156 18.3594 137.312 17.2812 137.625 16.3203C137.945 15.3516 138.398 14.5234 138.984 13.8359C139.57 13.1484 140.27 12.6211 141.082 12.2539C141.895 11.8867 142.797 11.7031 143.789 11.7031C144.805 11.7031 145.719 11.8867 146.531 12.2539C147.344 12.6211 148.043 13.1484 148.629 13.8359C149.215 14.5234 149.664 15.3516 149.977 16.3203C150.289 17.2812 150.445 18.3594 150.445 19.5547ZM149.016 21.3828V19.5312C149.016 18.5234 148.898 17.6172 148.664 16.8125C148.438 16.0078 148.098 15.3203 147.645 14.75C147.199 14.1797 146.652 13.7422 146.004 13.4375C145.355 13.1328 144.617 12.9805 143.789 12.9805C142.984 12.9805 142.262 13.1328 141.621 13.4375C140.98 13.7422 140.434 14.1797 139.98 14.75C139.535 15.3203 139.191 16.0078 138.949 16.8125C138.715 17.6172 138.598 18.5234 138.598 19.5312V21.3828C138.598 22.3984 138.715 23.3125 138.949 24.125C139.191 24.9297 139.539 25.6211 139.992 26.1992C140.445 26.7695 140.992 27.207 141.633 27.5117C142.281 27.8164 143.008 27.9688 143.812 27.9688C144.648 27.9688 145.387 27.8164 146.027 27.5117C146.668 27.207 147.211 26.7695 147.656 26.1992C148.102 25.6211 148.438 24.9297 148.664 24.125C148.898 23.3125 149.016 22.3984 149.016 21.3828Z" fill="#FF9B23"/>
</svg>
