<svg width="152" height="41" viewBox="0 0 152 41" fill="none" xmlns="http://www.w3.org/2000/svg">
<path d="M33.7072 22.2696C33.3406 22.4967 32.6964 22.8024 31.9756 22.968C31.2519 23.1344 30.485 23.1521 29.8458 22.8473L29.6306 23.2987C30.4139 23.6721 31.3102 23.6341 32.0876 23.4553C32.868 23.2759 33.5629 22.9471 33.9705 22.6946L33.7072 22.2696ZM31.2663 10.1443C31.1286 10.553 30.8272 11.1992 30.3775 11.7864C29.926 12.3759 29.3464 12.8784 28.6597 13.0511L28.7816 13.536C29.6231 13.3244 30.2894 12.7237 30.7745 12.0904C31.2613 11.4546 31.587 10.7583 31.7401 10.304L31.2663 10.1443ZM10.4844 11.103C10.9127 11.053 11.6258 11.0497 12.3487 11.2057C13.0746 11.3623 13.7764 11.6718 14.2258 12.2191L14.6122 11.9018C14.0616 11.2312 13.2339 10.8851 12.4542 10.7169C11.6714 10.5481 10.9027 10.5508 10.4265 10.6064L10.4844 11.103ZM15.9201 15.7172C16.2521 15.6784 16.8073 15.6758 17.3699 15.7971C17.9355 15.9191 18.4744 16.1589 18.8173 16.5765L19.2038 16.2592C18.7596 15.7183 18.0948 15.442 17.4754 15.3084C16.8529 15.1741 16.242 15.1762 15.8621 15.2205L15.9201 15.7172ZM20.5227 25.5857C20.5386 25.2518 20.6266 24.7035 20.8381 24.1683C21.0507 23.6302 21.3752 23.1376 21.8431 22.8674L21.5931 22.4344C20.987 22.7843 20.606 23.3952 20.3731 23.9845C20.1391 24.5767 20.0415 25.1798 20.0232 25.5618L20.5227 25.5857ZM14.8452 24.1374C14.9832 23.833 15.2674 23.356 15.6615 22.9366C16.0578 22.515 16.5412 22.177 17.0758 22.0986L17.0033 21.6039C16.3108 21.7054 15.7312 22.1324 15.2972 22.5942C14.8611 23.0581 14.5478 23.5826 14.3898 23.9309L14.8452 24.1374ZM27.6161 13.8574C27.5065 14.1731 27.2671 14.6742 26.9129 15.1278C26.5568 15.5838 26.1064 15.9646 25.5811 16.0915L25.6985 16.5775C26.3788 16.4132 26.917 15.935 27.307 15.4355C27.6989 14.9336 27.963 14.3827 28.0885 14.0214L27.6161 13.8574ZM7.29317 23.531C7.53258 23.1724 7.99201 22.627 8.57913 22.1774C9.16867 21.7258 9.85915 21.3917 10.5672 21.4039L10.5758 20.904C9.70828 20.889 8.90841 21.2954 8.27511 21.7804C7.63939 22.2673 7.14348 22.8547 6.8773 23.2534L7.29317 23.531ZM18.8531 32.9088C18.9374 32.4859 19.1538 31.8064 19.5246 31.1666C19.8971 30.5242 20.4076 29.9517 21.0667 29.6926L20.8837 29.2273C20.0762 29.5447 19.4921 30.2257 19.0921 30.9159C18.6905 31.6086 18.4565 32.3409 18.3628 32.8111L18.8531 32.9088ZM28.921 4.34421C25.351 2.34841 21.2066 1.6223 17.1664 2.28935C13.0439 2.96998 9.28491 5.05898 6.52995 8.2004C3.775 11.3418 2.19452 15.3413 2.05781 19.5174C1.9211 23.6935 3.23662 27.7878 5.78021 31.1026C8.32381 34.4175 11.9381 36.7479 16.0073 37.6967C20.0764 38.6455 24.3487 38.154 28.0961 36.306C31.8435 34.458 34.8343 31.3677 36.5587 27.5619C38.2487 23.8319 38.62 19.6408 37.6161 15.6759L39.3531 15.2105C40.4645 19.5773 40.0581 24.1951 38.1964 28.3039C36.3003 32.4887 33.0119 35.8866 28.8914 37.9186C24.7708 39.9507 20.0732 40.4911 15.5989 39.4478C11.1246 38.4046 7.15049 35.8422 4.35365 32.1973C1.55681 28.5523 0.110318 24.0504 0.260639 19.4586C0.41096 14.8667 2.14879 10.469 5.17804 7.01484C8.20728 3.56065 12.3405 1.26367 16.8734 0.515278C21.3241 -0.219533 25.8898 0.583182 29.8201 2.7869L28.921 4.34421ZM17.2478 2.78267C21.1739 2.13447 25.2012 2.83928 28.671 4.77726L19.8918 19.9833L19.59 20.506L20.173 20.3498L37.1331 15.8053C38.107 19.6585 37.7455 23.731 36.1032 27.3555C34.4266 31.056 31.5187 34.0607 27.875 35.8575C24.2313 37.6544 20.0773 38.1323 16.1208 37.2098C12.1643 36.2872 8.65007 34.0214 6.17689 30.7983C3.70371 27.5752 2.42462 23.5942 2.55754 19.5338C2.69047 15.4733 4.22719 11.5845 6.90588 8.53007C9.58456 5.47562 13.2395 3.44446 17.2478 2.78267ZM39.4092 13.4883C38.1528 9.04589 35.2424 5.25288 31.2766 2.8895L32.1757 1.33223C36.5544 3.93423 39.7662 8.11989 41.1462 13.0229L39.4092 13.4883ZM31.0266 3.32256C34.8775 5.61956 37.7042 9.30334 38.9262 13.6176L22.5491 18.0059L27.4769 9.47074L27.65 9.5779C28.2247 9.93352 28.9171 10.0463 29.5749 9.89141C30.2327 9.73653 30.802 9.32667 31.1577 8.75202C31.5133 8.17736 31.6261 7.48497 31.4712 6.82716C31.3163 6.16935 30.9065 5.60001 30.3318 5.24439L30.1192 5.11284L29.9876 5.32542L28.2358 8.15623L31.0266 3.32256ZM34.7105 14.6701L34.952 14.6054L34.8873 14.3639C34.7123 13.7112 34.2853 13.1546 33.7 12.8167C33.1148 12.4788 32.4193 12.3873 31.7665 12.5622C31.1137 12.7371 30.5572 13.1641 30.2193 13.7494C29.8814 14.3347 29.7898 15.0302 29.9647 15.6829L30.0294 15.9244L30.2709 15.8597L34.7105 14.6701ZM32.9386 26.7819C33.2313 27.8744 32.5829 28.9975 31.4903 29.2902C30.3978 29.583 29.2747 28.9346 28.982 27.842C28.6892 26.7494 29.3376 25.6264 30.4302 25.3336C31.5228 25.0409 32.6458 25.6893 32.9386 26.7819ZM31.6197 29.7732C32.9791 29.409 33.7857 28.0118 33.4215 26.6525C33.0573 25.2931 31.6601 24.4865 30.3008 24.8507C28.9414 25.2149 28.1348 26.6121 28.499 27.9714C28.8632 29.3308 30.2604 30.1374 31.6197 29.7732ZM33.45 13.2497C33.8477 13.4793 34.1545 13.8345 34.3248 14.2558L30.3978 15.3081C30.3346 14.8581 30.4227 14.3971 30.6523 13.9994C30.9239 13.529 31.3712 13.1857 31.8959 13.0451C32.4206 12.9046 32.9796 12.9782 33.45 13.2497ZM29.4603 9.40472C29.0134 9.50995 28.5465 9.46145 28.1338 9.27126L30.2732 5.81414C30.6276 6.09865 30.8793 6.49479 30.9845 6.94175C31.109 7.47048 31.0183 8.02701 30.7325 8.4889C30.4467 8.9508 29.989 9.28023 29.4603 9.40472ZM20.6288 7.47827C20.9215 8.57086 20.2731 9.6939 19.1806 9.98666C18.088 10.2794 16.9649 9.63103 16.6722 8.53844C16.3794 7.44586 17.0278 6.32282 18.1204 6.03006C19.213 5.7373 20.336 6.38569 20.6288 7.47827ZM19.31 10.4696C20.6693 10.1054 21.476 8.70818 21.1117 7.34887C20.7475 5.98955 19.3503 5.18287 17.991 5.5471C16.6317 5.91132 15.825 7.30853 16.1892 8.66785C16.5534 10.0272 17.9506 10.8338 19.31 10.4696ZM9.90692 16.2991C10.1997 17.3916 9.55129 18.5147 8.4587 18.8074C7.36612 19.1002 6.24308 18.4518 5.95032 17.3592C5.65756 16.2666 6.30595 15.1436 7.39853 14.8508C8.49112 14.5581 9.61416 15.2065 9.90692 16.2991ZM8.58811 19.2904C9.94743 18.9262 10.7541 17.529 10.3899 16.1696C10.0257 14.8103 8.62844 14.0036 7.26912 14.3679C5.90981 14.7321 5.10313 16.1293 5.46736 17.4886C5.83158 18.848 7.22879 19.6546 8.58811 19.2904ZM17.428 29.7992C17.5356 30.9252 16.71 31.9252 15.584 32.0327C14.458 32.1403 13.458 31.3147 13.3504 30.1887C13.2429 29.0627 14.0685 28.0627 15.1945 27.9551C16.3205 27.8475 17.3205 28.6732 17.428 29.7992ZM15.6315 32.5305C17.0324 32.3966 18.0596 31.1525 17.9258 29.7516C17.7919 28.3507 16.5478 27.3236 15.1469 27.4574C13.746 27.5912 12.7189 28.8353 12.8527 30.2362C12.9865 31.6371 14.2306 32.6643 15.6315 32.5305Z" stroke="white" stroke-width="0.5"/>
<path d="M58.8209 23.3825H60.2623C60.1451 24.5309 59.8287 25.5231 59.3131 26.3591C58.7975 27.1872 58.0943 27.8239 57.2037 28.2692C56.3131 28.7145 55.2389 28.9372 53.981 28.9372C53.0123 28.9372 52.1334 28.7536 51.3443 28.3864C50.5631 28.0192 49.8912 27.4997 49.3287 26.8278C48.7662 26.1481 48.3326 25.3356 48.0279 24.3903C47.7232 23.445 47.5709 22.3942 47.5709 21.238V19.1052C47.5709 17.9489 47.7232 16.902 48.0279 15.9645C48.3326 15.0192 48.7701 14.2067 49.3404 13.527C49.9107 12.8474 50.5943 12.3239 51.3912 11.9567C52.1881 11.5895 53.0865 11.4059 54.0865 11.4059C55.2975 11.4059 56.3443 11.6286 57.2271 12.0739C58.11 12.5114 58.8053 13.1442 59.3131 13.9724C59.8287 14.8005 60.1451 15.8005 60.2623 16.9724H58.8209C58.7115 16.0505 58.4693 15.2692 58.0943 14.6286C57.7193 13.988 57.1998 13.4997 56.5357 13.1638C55.8795 12.82 55.0631 12.6481 54.0865 12.6481C53.2896 12.6481 52.5787 12.8005 51.9537 13.1052C51.3287 13.4099 50.7975 13.8474 50.36 14.4177C49.9225 14.9802 49.5865 15.6559 49.3521 16.445C49.1256 17.2341 49.0123 18.113 49.0123 19.0817V21.238C49.0123 22.1755 49.1217 23.0388 49.3404 23.8278C49.5592 24.6169 49.8795 25.3005 50.3014 25.8786C50.731 26.4567 51.2545 26.9059 51.8717 27.2263C52.4889 27.5466 53.192 27.7067 53.981 27.7067C54.9889 27.7067 55.8287 27.5466 56.5006 27.2263C57.1803 26.8981 57.7076 26.4138 58.0826 25.7731C58.4576 25.1325 58.7037 24.3356 58.8209 23.3825ZM69.3795 12.6599L63.4732 28.7028H61.9732L68.4185 11.6403H69.4615L69.3795 12.6599ZM74.7467 28.7028L68.8287 12.6599L68.7467 11.6403H69.7896L76.2467 28.7028H74.7467ZM73.692 22.6794V23.9216H64.6334V22.6794H73.692ZM79.2232 11.6403H80.6764L86.981 26.6638L93.2975 11.6403H94.7389L87.5318 28.7028H86.4303L79.2232 11.6403ZM78.7779 11.6403H80.0553L80.2076 21.2497V28.7028H78.7779V11.6403ZM93.9303 11.6403H95.2076V28.7028H93.7662V21.2497L93.9303 11.6403ZM105.344 21.7536H100.481V20.5231H105.344C106.36 20.5231 107.184 20.3591 107.817 20.0309C108.458 19.695 108.922 19.2419 109.212 18.6716C109.508 18.1013 109.657 17.4606 109.657 16.7497C109.657 16.0544 109.508 15.4138 109.212 14.8278C108.922 14.2419 108.458 13.7731 107.817 13.4216C107.184 13.0622 106.36 12.8825 105.344 12.8825H100.985V28.7028H99.5435V11.6403H105.344C106.594 11.6403 107.645 11.8552 108.497 12.2849C109.356 12.7145 110.004 13.3122 110.442 14.0778C110.879 14.8434 111.098 15.7263 111.098 16.7263C111.098 17.7731 110.879 18.6755 110.442 19.4333C110.004 20.1833 109.36 20.7575 108.508 21.1559C107.657 21.5544 106.602 21.7536 105.344 21.7536ZM116.09 11.6403V28.7028H114.649V11.6403H116.09ZM133.434 11.6403V28.7028H131.981L122.172 14.1247V28.7028H120.731V11.6403H122.172L132.004 26.2184V11.6403H133.434ZM150.391 19.2575V21.0856C150.391 22.2809 150.235 23.363 149.922 24.3317C149.618 25.2927 149.172 26.1169 148.587 26.8044C148.008 27.4919 147.313 28.0192 146.501 28.3864C145.688 28.7536 144.774 28.9372 143.758 28.9372C142.766 28.9372 141.86 28.7536 141.04 28.3864C140.227 28.0192 139.528 27.4919 138.942 26.8044C138.356 26.1169 137.903 25.2927 137.583 24.3317C137.262 23.363 137.102 22.2809 137.102 21.0856V19.2575C137.102 18.0622 137.258 16.9841 137.571 16.0231C137.891 15.0544 138.344 14.2263 138.93 13.5388C139.516 12.8513 140.215 12.3239 141.028 11.9567C141.84 11.5895 142.743 11.4059 143.735 11.4059C144.751 11.4059 145.665 11.5895 146.477 11.9567C147.29 12.3239 147.989 12.8513 148.575 13.5388C149.161 14.2263 149.61 15.0544 149.922 16.0231C150.235 16.9841 150.391 18.0622 150.391 19.2575ZM148.962 21.0856V19.2341C148.962 18.2263 148.844 17.32 148.61 16.5153C148.383 15.7106 148.044 15.0231 147.59 14.4528C147.145 13.8825 146.598 13.445 145.95 13.1403C145.301 12.8356 144.563 12.6833 143.735 12.6833C142.93 12.6833 142.208 12.8356 141.567 13.1403C140.926 13.445 140.379 13.8825 139.926 14.4528C139.481 15.0231 139.137 15.7106 138.895 16.5153C138.661 17.32 138.544 18.2263 138.544 19.2341V21.0856C138.544 22.1013 138.661 23.0153 138.895 23.8278C139.137 24.6325 139.485 25.3239 139.938 25.902C140.391 26.4724 140.938 26.9099 141.579 27.2145C142.227 27.5192 142.954 27.6716 143.758 27.6716C144.594 27.6716 145.333 27.5192 145.973 27.2145C146.614 26.9099 147.157 26.4724 147.602 25.902C148.047 25.3239 148.383 24.6325 148.61 23.8278C148.844 23.0153 148.962 22.1013 148.962 21.0856Z" fill="white"/>
</svg>
